<svg width="12" height="12" viewBox="0 0 12 12" fill="none" xmlns="http://www.w3.org/2000/svg">
<path d="M8.46524 6.00009C9.06157 5.99991 9.6417 5.80595 10.1182 5.44743C10.5947 5.08892 10.9417 4.58527 11.1071 4.01238C11.2724 3.4395 11.247 2.82841 11.0347 2.27121C10.8225 1.714 10.4348 1.24087 9.93024 0.923099C9.42565 0.605328 8.83144 0.460138 8.23714 0.509407C7.64284 0.558676 7.08066 0.799735 6.6353 1.19626C6.18995 1.59278 5.88555 2.12329 5.76797 2.70784C5.65039 3.29239 5.72601 3.89931 5.98343 4.43715L3.83809 5.50966C3.45834 5.23875 3.00495 5.09016 2.53849 5.08372C2.07203 5.07729 1.61471 5.21332 1.22763 5.47365C0.840541 5.73399 0.542122 6.10622 0.372234 6.54063C0.202346 6.97504 0.169078 7.45094 0.276875 7.90475C0.384671 8.35857 0.628399 8.76869 0.975499 9.08033C1.3226 9.39198 1.75654 9.5903 2.21936 9.64881C2.68218 9.70732 3.15184 9.62322 3.5656 9.40777C3.97935 9.19231 4.3175 8.85575 4.53487 8.44304L6.63987 9.49539C6.59821 9.93942 6.71984 10.3834 6.982 10.7442C7.24417 11.105 7.62887 11.3579 8.06409 11.4555C8.49931 11.5532 8.95519 11.4888 9.34638 11.2746C9.73757 11.0603 10.0372 10.7108 10.1893 10.2916C10.3413 9.8723 10.3353 9.412 10.1724 8.99685C10.0094 8.58171 9.70069 8.24018 9.30403 8.03623C8.90738 7.83227 8.44996 7.77987 8.01745 7.88884C7.58493 7.99781 7.20697 8.26067 6.95433 8.62821L4.79158 7.54653C4.79586 7.49092 4.798 7.43378 4.798 7.37511C4.798 6.95069 4.68248 6.55285 4.4817 6.21276L6.51977 5.19341C6.77514 5.44907 7.0784 5.6519 7.41222 5.79031C7.74603 5.92873 8.10386 6.00001 8.46524 6.00009ZM8.46524 5.08341C7.97893 5.08341 7.51254 4.89025 7.16867 4.54643C6.8248 4.20261 6.63162 3.73628 6.63162 3.25005C6.63162 2.76381 6.8248 2.29748 7.16867 1.95366C7.51254 1.60984 7.97893 1.41668 8.46524 1.41668C8.95154 1.41668 9.41793 1.60984 9.7618 1.95366C10.1057 2.29748 10.2989 2.76381 10.2989 3.25005C10.2989 3.73628 10.1057 4.20261 9.7618 4.54643C9.41793 4.89025 8.95154 5.08341 8.46524 5.08341ZM2.50597 8.75013C2.14124 8.75013 1.79145 8.60526 1.53354 8.3474C1.27564 8.08953 1.13075 7.73979 1.13075 7.37511C1.13075 7.01043 1.27564 6.66069 1.53354 6.40282C1.79145 6.14496 2.14124 6.00009 2.50597 6.00009C2.8707 6.00009 3.22049 6.14496 3.47839 6.40282C3.7363 6.66069 3.88118 7.01043 3.88118 7.37511C3.88118 7.73979 3.7363 8.08953 3.47839 8.3474C3.22049 8.60526 2.8707 8.75013 2.50597 8.75013ZM9.38205 9.66681C9.38205 9.90993 9.28545 10.1431 9.11352 10.315C8.94158 10.4869 8.70839 10.5835 8.46524 10.5835C8.22208 10.5835 7.98889 10.4869 7.81695 10.315C7.64502 10.1431 7.54843 9.90993 7.54843 9.66681C7.54843 9.42369 7.64502 9.19053 7.81695 9.01862C7.98889 8.84671 8.22208 8.75013 8.46524 8.75013C8.70839 8.75013 8.94158 8.84671 9.11352 9.01862C9.28545 9.19053 9.38205 9.42369 9.38205 9.66681Z" fill="#EC1076"/>
</svg>
