<svg width="257" height="235" viewBox="0 0 257 235" fill="none" xmlns="http://www.w3.org/2000/svg">
<path fill-rule="evenodd" clip-rule="evenodd" d="M118.543 13.7053V129.186C118.543 133.41 116.494 137.251 113.038 139.684L20.7299 204.338C13.1762 209.587 2.42195 205.49 0.7576 196.4C-1.16281 185.389 1.39774 172.459 9.07937 158.504L28.2163 124.094C31.7367 117.765 39.8116 115.812 46.9722 116.9C48.7445 117.17 50.5594 117.309 52.407 117.309C72.2132 117.309 88.2692 101.253 88.2692 81.4471C88.2692 72.533 85.0169 64.3785 79.6341 58.1055C74.9233 52.6157 72.3368 44.7334 75.851 38.4104L86.6639 18.9544C89.6085 13.7053 92.8092 9.0963 96.1379 5.12746C103.82 -3.83445 118.543 1.92678 118.543 13.7053ZM235.563 204.338L143.255 139.684C139.798 137.251 137.75 133.41 137.75 129.186V13.7053C137.75 1.92678 152.473 -3.83445 160.155 5.12746C163.484 9.0963 166.684 13.7053 169.629 18.9544L180.445 38.4158C183.958 44.738 181.373 52.6191 176.664 58.1088C171.282 64.3813 168.031 72.5345 168.031 81.4471C168.031 101.253 184.087 117.309 203.893 117.309C205.74 117.309 207.553 117.17 209.324 116.901C216.484 115.813 224.557 117.767 228.077 124.096L247.213 158.504C254.895 172.459 257.456 185.389 255.535 196.4C253.871 205.49 243.116 209.587 235.563 204.338ZM120.6 156.349L41.8631 208.84C22.2205 221.855 24.1292 232.714 45.2405 234.052C48.0055 234.227 50.7762 233.847 53.463 233.172L120.547 216.299C125.858 214.963 131.419 214.97 136.727 216.319L203.017 233.172C205.674 233.848 208.416 234.233 211.154 234.077C232.43 232.863 234.362 221.988 214.7 208.84L135.963 156.349C131.739 153.532 124.825 153.532 120.6 156.349ZM70.3303 81.4476C70.3303 91.3507 62.3023 99.3787 52.3992 99.3787C42.4961 99.3787 34.4681 91.3507 34.4681 81.4476C34.4681 71.5446 42.4961 63.5165 52.3992 63.5165C62.3023 63.5165 70.3303 71.5446 70.3303 81.4476ZM203.895 99.3788C213.798 99.3788 221.826 91.3507 221.826 81.4477C221.826 71.5446 213.798 63.5166 203.895 63.5166C193.992 63.5166 185.964 71.5446 185.964 81.4477C185.964 91.3507 193.992 99.3788 203.895 99.3788Z" fill="url(#paint0_linear_1458_2)"/>
<defs>
<linearGradient id="paint0_linear_1458_2" x1="0.146484" y1="0.75" x2="256.39" y2="233.842" gradientUnits="userSpaceOnUse">
<stop stop-color="#3DC4CD"/>
<stop offset="1" stop-color="#4FE5B8"/>
</linearGradient>
</defs>
</svg>
